<mxfile host="app.diagrams.net" modified="2023-09-23T15:27:26.949Z" agent="Mozilla/5.0 (Windows NT 10.0; Win64; x64) AppleWebKit/537.36 (KHTML, like Gecko) Chrome/117.0.0.0 Safari/537.36" etag="bsjTz-Vo0752qyKkj0B0" version="21.8.1" type="github">
  <diagram name="Page-1" id="qSBKfjo7JGSMNSEJkH3g">
    <mxGraphModel dx="2100" dy="1148" grid="1" gridSize="10" guides="1" tooltips="1" connect="1" arrows="1" fold="1" page="1" pageScale="1" pageWidth="827" pageHeight="1169" math="0" shadow="0">
      <root>
        <mxCell id="0" />
        <mxCell id="1" parent="0" />
        <mxCell id="ebgiKoA3hhUovEIoj04p-3" value="" style="rounded=1;whiteSpace=wrap;html=1;" vertex="1" parent="1">
          <mxGeometry x="10" y="10" width="810" height="1140" as="geometry" />
        </mxCell>
        <mxCell id="ebgiKoA3hhUovEIoj04p-4" value="" style="rounded=1;whiteSpace=wrap;html=1;" vertex="1" parent="1">
          <mxGeometry x="850" width="810" height="1140" as="geometry" />
        </mxCell>
        <mxCell id="ebgiKoA3hhUovEIoj04p-5" value="" style="rounded=1;whiteSpace=wrap;html=1;" vertex="1" parent="1">
          <mxGeometry x="1680" width="810" height="1140" as="geometry" />
        </mxCell>
        <mxCell id="ebgiKoA3hhUovEIoj04p-6" value="&lt;b&gt;&lt;font style=&quot;font-size: 125px;&quot;&gt;ABDN GO&lt;/font&gt;&lt;/b&gt;" style="text;html=1;strokeColor=none;fillColor=none;align=center;verticalAlign=middle;whiteSpace=wrap;rounded=0;" vertex="1" parent="1">
          <mxGeometry x="89" y="240" width="650" height="230" as="geometry" />
        </mxCell>
        <mxCell id="ebgiKoA3hhUovEIoj04p-9" value="" style="rounded=1;whiteSpace=wrap;html=1;" vertex="1" parent="1">
          <mxGeometry x="49" y="485" width="730" height="170" as="geometry" />
        </mxCell>
        <mxCell id="ebgiKoA3hhUovEIoj04p-10" value="" style="rounded=1;whiteSpace=wrap;html=1;" vertex="1" parent="1">
          <mxGeometry x="49" y="690" width="730" height="170" as="geometry" />
        </mxCell>
        <mxCell id="ebgiKoA3hhUovEIoj04p-11" value="&lt;font style=&quot;font-size: 83px;&quot;&gt;Plan Now&lt;/font&gt;" style="text;html=1;strokeColor=none;fillColor=none;align=center;verticalAlign=middle;whiteSpace=wrap;rounded=0;" vertex="1" parent="1">
          <mxGeometry x="130" y="505" width="590" height="130" as="geometry" />
        </mxCell>
        <mxCell id="ebgiKoA3hhUovEIoj04p-12" value="&lt;font style=&quot;font-size: 83px;&quot;&gt;Plan As You Go&lt;/font&gt;" style="text;html=1;strokeColor=none;fillColor=none;align=center;verticalAlign=middle;whiteSpace=wrap;rounded=0;" vertex="1" parent="1">
          <mxGeometry x="130" y="710" width="590" height="130" as="geometry" />
        </mxCell>
        <mxCell id="ebgiKoA3hhUovEIoj04p-13" value="&lt;b style=&quot;&quot;&gt;&lt;font style=&quot;font-size: 103px;&quot;&gt;Where First?&lt;/font&gt;&lt;/b&gt;" style="text;html=1;strokeColor=none;fillColor=none;align=center;verticalAlign=middle;whiteSpace=wrap;rounded=0;" vertex="1" parent="1">
          <mxGeometry x="916" y="40" width="650" height="230" as="geometry" />
        </mxCell>
        <mxCell id="ebgiKoA3hhUovEIoj04p-14" value="&lt;span style=&quot;font-size: 65px;&quot;&gt;&lt;b style=&quot;font-size: 65px;&quot;&gt;Coffee Shop&lt;/b&gt;&lt;/span&gt;" style="text;html=1;strokeColor=none;fillColor=none;align=center;verticalAlign=middle;whiteSpace=wrap;rounded=0;fontSize=65;" vertex="1" parent="1">
          <mxGeometry x="880" y="230" width="410" height="150" as="geometry" />
        </mxCell>
        <mxCell id="ebgiKoA3hhUovEIoj04p-15" value="&lt;span style=&quot;font-size: 65px;&quot;&gt;&lt;b style=&quot;font-size: 65px;&quot;&gt;Lunch&lt;/b&gt;&lt;/span&gt;" style="text;html=1;strokeColor=none;fillColor=none;align=center;verticalAlign=middle;whiteSpace=wrap;rounded=0;fontSize=65;" vertex="1" parent="1">
          <mxGeometry x="1424" y="343" width="230" height="150" as="geometry" />
        </mxCell>
        <mxCell id="ebgiKoA3hhUovEIoj04p-16" value="&lt;span style=&quot;font-size: 65px;&quot;&gt;&lt;b style=&quot;font-size: 65px;&quot;&gt;Dinner&lt;/b&gt;&lt;/span&gt;" style="text;html=1;strokeColor=none;fillColor=none;align=center;verticalAlign=middle;whiteSpace=wrap;rounded=0;fontSize=65;" vertex="1" parent="1">
          <mxGeometry x="880" y="457" width="210" height="150" as="geometry" />
        </mxCell>
        <mxCell id="ebgiKoA3hhUovEIoj04p-17" value="&lt;span style=&quot;font-size: 65px;&quot;&gt;&lt;b style=&quot;font-size: 65px;&quot;&gt;Landmarks&lt;/b&gt;&lt;/span&gt;" style="text;html=1;strokeColor=none;fillColor=none;align=center;verticalAlign=middle;whiteSpace=wrap;rounded=0;fontSize=65;" vertex="1" parent="1">
          <mxGeometry x="880" y="683" width="320" height="150" as="geometry" />
        </mxCell>
        <mxCell id="ebgiKoA3hhUovEIoj04p-18" value="&lt;span style=&quot;font-size: 65px;&quot;&gt;&lt;b style=&quot;font-size: 65px;&quot;&gt;Bars&lt;/b&gt;&lt;/span&gt;" style="text;html=1;strokeColor=none;fillColor=none;align=center;verticalAlign=middle;whiteSpace=wrap;rounded=0;fontSize=65;" vertex="1" parent="1">
          <mxGeometry x="1444" y="570" width="210" height="150" as="geometry" />
        </mxCell>
        <mxCell id="ebgiKoA3hhUovEIoj04p-20" value="&lt;span style=&quot;font-size: 65px;&quot;&gt;&lt;b style=&quot;font-size: 65px;&quot;&gt;Activities&lt;/b&gt;&lt;/span&gt;" style="text;html=1;strokeColor=none;fillColor=none;align=center;verticalAlign=middle;whiteSpace=wrap;rounded=0;fontSize=65;" vertex="1" parent="1">
          <mxGeometry x="1354" y="797" width="300" height="150" as="geometry" />
        </mxCell>
        <mxCell id="ebgiKoA3hhUovEIoj04p-21" value="&lt;span style=&quot;font-size: 65px;&quot;&gt;&lt;b style=&quot;font-size: 65px;&quot;&gt;Surprise&lt;/b&gt;&lt;/span&gt;&lt;b style=&quot;font-size: 65px;&quot;&gt;&amp;nbsp;Me&lt;/b&gt;" style="text;html=1;strokeColor=none;fillColor=none;align=center;verticalAlign=middle;whiteSpace=wrap;rounded=0;fontSize=65;" vertex="1" parent="1">
          <mxGeometry x="880" y="910" width="350" height="150" as="geometry" />
        </mxCell>
        <mxCell id="ebgiKoA3hhUovEIoj04p-24" value="" style="shape=flexArrow;endArrow=classic;html=1;rounded=0;exitX=1;exitY=0.5;exitDx=0;exitDy=0;strokeColor=#5E5E5E;fillColor=#B0B0B0;strokeWidth=16;" edge="1" parent="1" source="ebgiKoA3hhUovEIoj04p-14">
          <mxGeometry width="50" height="50" relative="1" as="geometry">
            <mxPoint x="1490" y="250" as="sourcePoint" />
            <mxPoint x="1610" y="305" as="targetPoint" />
          </mxGeometry>
        </mxCell>
        <mxCell id="ebgiKoA3hhUovEIoj04p-25" value="" style="shape=flexArrow;endArrow=classic;html=1;rounded=0;strokeColor=#5E5E5E;fillColor=#B0B0B0;strokeWidth=16;" edge="1" parent="1">
          <mxGeometry width="50" height="50" relative="1" as="geometry">
            <mxPoint x="1110" y="540" as="sourcePoint" />
            <mxPoint x="1600" y="540" as="targetPoint" />
          </mxGeometry>
        </mxCell>
        <mxCell id="ebgiKoA3hhUovEIoj04p-26" value="" style="shape=flexArrow;endArrow=classic;html=1;rounded=0;exitX=1;exitY=0.5;exitDx=0;exitDy=0;strokeColor=#5E5E5E;fillColor=#B0B0B0;strokeWidth=16;" edge="1" parent="1">
          <mxGeometry width="50" height="50" relative="1" as="geometry">
            <mxPoint x="1236" y="757" as="sourcePoint" />
            <mxPoint x="1600" y="757" as="targetPoint" />
          </mxGeometry>
        </mxCell>
        <mxCell id="ebgiKoA3hhUovEIoj04p-27" value="" style="shape=flexArrow;endArrow=classic;html=1;rounded=0;exitX=1;exitY=0.5;exitDx=0;exitDy=0;strokeColor=#5E5E5E;fillColor=#B0B0B0;strokeWidth=16;" edge="1" parent="1">
          <mxGeometry width="50" height="50" relative="1" as="geometry">
            <mxPoint x="1250" y="984" as="sourcePoint" />
            <mxPoint x="1600" y="984" as="targetPoint" />
          </mxGeometry>
        </mxCell>
        <mxCell id="ebgiKoA3hhUovEIoj04p-28" value="" style="shape=flexArrow;endArrow=classic;html=1;rounded=0;strokeColor=#5E5E5E;fillColor=#B0B0B0;strokeWidth=16;exitX=0;exitY=0.5;exitDx=0;exitDy=0;" edge="1" parent="1" source="ebgiKoA3hhUovEIoj04p-15">
          <mxGeometry width="50" height="50" relative="1" as="geometry">
            <mxPoint x="1110" y="450" as="sourcePoint" />
            <mxPoint x="900" y="418" as="targetPoint" />
          </mxGeometry>
        </mxCell>
        <mxCell id="ebgiKoA3hhUovEIoj04p-29" value="" style="shape=flexArrow;endArrow=classic;html=1;rounded=0;strokeColor=#5E5E5E;fillColor=#B0B0B0;strokeWidth=16;exitX=0;exitY=0.5;exitDx=0;exitDy=0;" edge="1" parent="1" source="ebgiKoA3hhUovEIoj04p-18">
          <mxGeometry width="50" height="50" relative="1" as="geometry">
            <mxPoint x="1130" y="560" as="sourcePoint" />
            <mxPoint x="900" y="645" as="targetPoint" />
          </mxGeometry>
        </mxCell>
        <mxCell id="ebgiKoA3hhUovEIoj04p-30" value="" style="shape=flexArrow;endArrow=classic;html=1;rounded=0;strokeColor=#5E5E5E;fillColor=#B0B0B0;strokeWidth=16;exitX=0;exitY=0.5;exitDx=0;exitDy=0;" edge="1" parent="1" source="ebgiKoA3hhUovEIoj04p-20">
          <mxGeometry width="50" height="50" relative="1" as="geometry">
            <mxPoint x="1140" y="570" as="sourcePoint" />
            <mxPoint x="890" y="872" as="targetPoint" />
          </mxGeometry>
        </mxCell>
        <mxCell id="ebgiKoA3hhUovEIoj04p-36" value="" style="rounded=0;whiteSpace=wrap;html=1;" vertex="1" parent="1">
          <mxGeometry x="1725" y="40" width="720" height="590" as="geometry" />
        </mxCell>
        <mxCell id="ebgiKoA3hhUovEIoj04p-35" value="" style="shape=umlDestroy;whiteSpace=wrap;html=1;strokeWidth=3;targetShapes=umlLifeline;" vertex="1" parent="1">
          <mxGeometry x="1725" y="40" width="720" height="580" as="geometry" />
        </mxCell>
        <mxCell id="ebgiKoA3hhUovEIoj04p-37" value="&lt;b&gt;&lt;font style=&quot;font-size: 80px;&quot;&gt;MAP&lt;/font&gt;&lt;/b&gt;" style="text;html=1;strokeColor=none;fillColor=none;align=center;verticalAlign=middle;whiteSpace=wrap;rounded=0;" vertex="1" parent="1">
          <mxGeometry x="1835" y="130" width="500" height="30" as="geometry" />
        </mxCell>
        <mxCell id="ebgiKoA3hhUovEIoj04p-58" value="Coffee Shops You Might Like" style="swimlane;fontStyle=1;align=center;verticalAlign=middle;childLayout=stackLayout;horizontal=1;startSize=40;horizontalStack=0;resizeParent=1;resizeParentMax=0;resizeLast=0;collapsible=1;marginBottom=0;whiteSpace=wrap;html=1;fontSize=20;labelPosition=center;verticalLabelPosition=middle;" vertex="1" parent="1">
          <mxGeometry x="1730" y="660" width="720" height="130" as="geometry" />
        </mxCell>
        <mxCell id="ebgiKoA3hhUovEIoj04p-59" value="MILKJUG&lt;span style=&quot;white-space: pre;&quot;&gt;&#x9;&lt;/span&gt;&lt;span style=&quot;white-space: pre;&quot;&gt;&#x9;&lt;/span&gt;&lt;span style=&quot;white-space: pre;&quot;&gt;&#x9;&lt;/span&gt;&lt;span style=&quot;white-space: pre;&quot;&gt;&#x9;&lt;/span&gt;&lt;span style=&quot;white-space: pre;&quot;&gt;&#x9;&lt;/span&gt;&lt;span style=&quot;white-space: pre;&quot;&gt;&#x9;&lt;/span&gt;&lt;span style=&quot;white-space: pre;&quot;&gt;&#x9;&lt;/span&gt;&lt;span style=&quot;white-space: pre;&quot;&gt;&#x9;&lt;/span&gt;&lt;span style=&quot;white-space: pre;&quot;&gt;&#x9;&lt;/span&gt;0.2km" style="text;strokeColor=none;fillColor=none;align=left;verticalAlign=top;spacingLeft=4;spacingRight=4;overflow=hidden;rotatable=0;points=[[0,0.5],[1,0.5]];portConstraint=eastwest;whiteSpace=wrap;html=1;fontSize=26;" vertex="1" parent="ebgiKoA3hhUovEIoj04p-58">
          <mxGeometry y="40" width="720" height="40" as="geometry" />
        </mxCell>
        <mxCell id="ebgiKoA3hhUovEIoj04p-60" value="" style="line;strokeWidth=1;fillColor=none;align=left;verticalAlign=middle;spacingTop=-1;spacingLeft=3;spacingRight=3;rotatable=0;labelPosition=right;points=[];portConstraint=eastwest;strokeColor=inherit;" vertex="1" parent="ebgiKoA3hhUovEIoj04p-58">
          <mxGeometry y="80" width="720" height="8" as="geometry" />
        </mxCell>
        <mxCell id="ebgiKoA3hhUovEIoj04p-61" value="The Coffee House&amp;nbsp;&lt;span style=&quot;white-space: pre;&quot;&gt;&#x9;&lt;/span&gt;&lt;span style=&quot;white-space: pre;&quot;&gt;&#x9;&lt;/span&gt;&lt;span style=&quot;white-space: pre;&quot;&gt;&#x9;&lt;/span&gt;&lt;span style=&quot;white-space: pre;&quot;&gt;&#x9;&lt;/span&gt;&lt;span style=&quot;white-space: pre;&quot;&gt;&#x9;&lt;/span&gt;&lt;span style=&quot;white-space: pre;&quot;&gt;&#x9;&lt;/span&gt;&lt;span style=&quot;white-space: pre;&quot;&gt;&#x9;&lt;/span&gt;&lt;span style=&quot;white-space: pre;&quot;&gt;&#x9;&lt;/span&gt;0.4km" style="text;strokeColor=none;fillColor=none;align=left;verticalAlign=top;spacingLeft=4;spacingRight=4;overflow=hidden;rotatable=0;points=[[0,0.5],[1,0.5]];portConstraint=eastwest;whiteSpace=wrap;html=1;fontSize=26;" vertex="1" parent="ebgiKoA3hhUovEIoj04p-58">
          <mxGeometry y="88" width="720" height="42" as="geometry" />
        </mxCell>
        <mxCell id="ebgiKoA3hhUovEIoj04p-66" value="ReCHarge Cafe&lt;span style=&quot;white-space: pre;&quot;&gt;&#x9;&lt;/span&gt;&lt;span style=&quot;white-space: pre;&quot;&gt;&#x9;&lt;/span&gt;&lt;span style=&quot;white-space: pre;&quot;&gt;&#x9;&lt;/span&gt;&lt;span style=&quot;white-space: pre;&quot;&gt;&#x9;&lt;/span&gt;&lt;span style=&quot;white-space: pre;&quot;&gt;&#x9;&lt;/span&gt;&lt;span style=&quot;white-space: pre;&quot;&gt;&#x9;&lt;/span&gt;&lt;span style=&quot;white-space: pre;&quot;&gt;&#x9;&lt;/span&gt;&lt;span style=&quot;white-space: pre;&quot;&gt;&#x9;&lt;/span&gt;0.4km" style="text;strokeColor=default;fillColor=none;align=left;verticalAlign=top;spacingLeft=4;spacingRight=4;overflow=hidden;rotatable=0;points=[[0,0.5],[1,0.5]];portConstraint=eastwest;whiteSpace=wrap;html=1;fontSize=26;perimeterSpacing=1;" vertex="1" parent="1">
          <mxGeometry x="1730" y="790" width="720" height="40" as="geometry" />
        </mxCell>
        <mxCell id="ebgiKoA3hhUovEIoj04p-69" value="Mojo Coffee &amp;amp; Food House&lt;span style=&quot;white-space: pre;&quot;&gt;&#x9;&lt;/span&gt;&lt;span style=&quot;white-space: pre;&quot;&gt;&#x9;&lt;/span&gt;&lt;span style=&quot;white-space: pre;&quot;&gt;&#x9;&lt;/span&gt;&lt;span style=&quot;white-space: pre;&quot;&gt;&#x9;&lt;/span&gt;&lt;span style=&quot;white-space: pre;&quot;&gt;&#x9;&lt;/span&gt;&lt;span style=&quot;white-space: pre;&quot;&gt;&#x9;&lt;/span&gt;0.5km" style="text;strokeColor=default;fillColor=none;align=left;verticalAlign=top;spacingLeft=4;spacingRight=4;overflow=hidden;rotatable=0;points=[[0,0.5],[1,0.5]];portConstraint=eastwest;whiteSpace=wrap;html=1;fontSize=26;perimeterSpacing=1;" vertex="1" parent="1">
          <mxGeometry x="1730" y="830" width="720" height="40" as="geometry" />
        </mxCell>
        <mxCell id="ebgiKoA3hhUovEIoj04p-70" value="&lt;font style=&quot;font-size: 40px;&quot;&gt;Back&lt;/font&gt;" style="rounded=0;whiteSpace=wrap;html=1;labelPosition=center;verticalLabelPosition=middle;align=center;verticalAlign=middle;" vertex="1" parent="1">
          <mxGeometry x="1730" y="1020" width="150" height="60" as="geometry" />
        </mxCell>
      </root>
    </mxGraphModel>
  </diagram>
</mxfile>
